<svg xmlns="http://www.w3.org/2000/svg" xmlns:xlink="http://www.w3.org/1999/xlink"><defs>
    <clipPath id="a">
      <path fill="#fff" d="M0 0h20v20H0z"/>
    </clipPath>
  </defs><symbol id="basket"><g fill="none">
  <g fill="#4D4D4D" fill-opacity=".3" clip-path="url(#a)">
    <path d="M18.572 2.857h-5v-.714A2.144 2.144 0 0 0 11.428 0H8.572C7.388 0 6.429.96 6.429 2.143v.714h-5a.714.714 0 1 0 0 1.429h.776L3.572 19.35c.033.369.343.65.714.649h11.428c.37.002.681-.28.715-.65l1.366-15.064h.776a.714.714 0 1 0 0-1.429ZM7.857 2.143c0-.395.32-.714.715-.714h2.857c.394 0 .714.32.714.714v.714H7.857v-.714Zm7.205 16.428H4.938L3.643 4.286H16.36L15.062 18.57Z"/>
    <path d="M7.857 16.381v-.003l-.714-10a.716.716 0 0 0-1.429.101l.715 10a.714.714 0 0 0 .714.664h.051a.714.714 0 0 0 .663-.762ZM10 5.714a.714.714 0 0 0-.714.715v10a.714.714 0 1 0 1.428 0v-10A.714.714 0 0 0 10 5.714Zm3.622 0a.716.716 0 0 0-.765.664l-.714 10a.714.714 0 0 0 .66.764h.053a.713.713 0 0 0 .715-.663l.715-10a.716.716 0 0 0-.664-.765Z"/>
  </g>
  
</g></symbol><symbol id="cart"><g fill="none">
  <path fill="#fff" d="M20 6.579h-3.396L13.036.319a.608.608 0 0 0-.858-.225.678.678 0 0 0-.214.902l3.182 5.583H4.854L8.036.996a.678.678 0 0 0-.214-.902.608.608 0 0 0-.858.225L3.396 6.58H0v1.316h1.357l1.587 8.915c.166.934.941 1.611 1.844 1.611h10.424c.902 0 1.678-.677 1.843-1.61l1.588-8.916H20V6.579Zm-4.174 9.99a.634.634 0 0 1-.614.536H4.788a.634.634 0 0 1-.615-.537L2.628 7.895h14.744l-1.546 8.674Z"/>
</g></symbol><symbol id="icon-close" viewBox="0 0 20 20"><g fill="none"><path d="M.293 18.291a1 1 0 101.414 1.414L10 11.413l8.292 8.292a1 1 0 101.414-1.414l-8.292-8.292 8.292-8.292A1 1 0 1018.291.293L9.999 8.585 1.707.293A1 1 0 10.293 1.707L8.585 10 .293 18.291z"/></g></symbol><symbol id="instagram-logo" viewBox="0 0 628.000000 223.000000" preserveAspectRatio="xMidYMid meet">

<g transform="translate(0.000000,223.000000) scale(0.100000,-0.100000)" fill="#000000" stroke="none">
<path d="M455 1856 c-102 -51 -216 -196 -255 -325 -42 -133 -11 -234 92 -303
76 -52 101 -34 62 44 -51 100 -43 240 21 373 18 39 50 86 70 105 l36 35 -4
-520 c-3 -458 -5 -527 -21 -579 -22 -73 -17 -90 21 -75 40 15 91 67 118 120
42 81 46 145 43 638 l-3 465 -30 17 c-54 31 -95 33 -150 5z"/>
<path d="M2118 1869 c-14 -8 -18 -23 -18 -67 0 -31 -3 -81 -7 -110 l-6 -54
-81 3 c-77 3 -81 2 -93 -21 -7 -14 -13 -40 -13 -57 l0 -33 53 0 c28 0 69 -3
90 -6 l37 -7 0 -191 c0 -177 -2 -195 -24 -248 -13 -31 -38 -76 -57 -99 l-34
-43 -6 57 c-9 78 -39 120 -148 203 -87 66 -103 85 -81 99 22 13 60 106 60 144
0 47 -18 61 -75 61 -58 0 -111 -36 -140 -94 -30 -61 -31 -86 -4 -141 l21 -42
-52 -94 c-102 -184 -162 -260 -187 -235 -16 16 -21 120 -16 301 4 146 3 207
-6 223 -14 25 -100 72 -133 72 -33 0 -93 -39 -123 -80 -37 -49 -78 -132 -111
-225 l-29 -80 -3 177 -2 177 -54 17 c-93 29 -87 53 -84 -347 l3 -351 24 -19
c23 -19 85 -26 107 -11 6 4 14 30 18 57 16 118 96 357 148 444 29 47 78 111
86 111 4 0 7 -118 7 -262 0 -231 2 -267 17 -295 38 -69 88 -79 159 -34 57 36
88 74 169 206 36 58 77 127 93 151 l27 45 50 -41 c26 -22 63 -62 80 -88 28
-42 31 -53 27 -101 -7 -93 -62 -114 -149 -56 -21 14 -46 25 -57 25 -20 0 -53
-39 -65 -77 -17 -53 95 -99 220 -91 132 9 234 82 299 217 l28 56 13 -62 c26
-129 80 -199 162 -210 66 -9 126 36 180 136 l30 53 11 -35 c33 -98 121 -164
207 -154 57 6 129 50 162 97 15 22 30 39 34 40 3 0 9 -14 13 -30 16 -71 111
-123 184 -101 38 11 111 80 111 104 0 6 13 -8 29 -30 33 -46 101 -83 152 -83
47 1 117 34 162 78 l37 36 0 -34 c0 -30 -14 -46 -130 -157 -104 -100 -136
-137 -161 -188 -50 -103 -33 -185 50 -242 69 -47 185 -42 253 10 91 71 128
194 128 431 l0 143 46 59 c85 109 173 264 219 387 l18 47 60 0 60 0 -6 -28
c-33 -163 -32 -330 1 -405 41 -93 121 -147 197 -133 39 8 100 56 110 87 9 27
17 24 42 -15 24 -38 94 -76 140 -76 69 0 143 43 193 111 l28 39 7 -27 c10 -42
43 -82 85 -103 73 -37 138 -20 181 48 30 47 31 47 41 -23 4 -25 43 -45 91 -45
70 0 73 5 81 137 3 65 13 148 21 185 16 78 75 230 91 235 7 2 13 -39 18 -124
16 -297 43 -373 135 -373 50 0 61 14 61 78 0 73 34 234 71 337 17 47 34 87 37
89 4 2 8 -64 8 -147 2 -232 31 -336 103 -385 100 -66 191 -25 231 105 23 75
25 116 7 131 -21 17 -33 1 -55 -74 -24 -78 -39 -97 -74 -92 -56 8 -82 154 -72
413 6 159 6 160 -17 181 -26 23 -99 54 -128 54 -10 0 -25 -8 -35 -18 -23 -26
-73 -165 -106 -297 -18 -67 -29 -98 -30 -80 -1 17 -5 96 -8 177 -7 136 -9 149
-31 172 -29 31 -83 50 -116 42 -30 -8 -59 -63 -106 -201 l-34 -100 -3 137 -3
137 -51 16 c-28 8 -57 15 -64 15 -29 0 -34 -42 -34 -264 0 -206 -2 -230 -22
-283 -22 -60 -65 -113 -92 -113 -24 0 -53 38 -61 78 -4 20 -6 147 -6 284 1
246 1 247 -21 262 -13 7 -40 17 -61 20 -44 8 -67 -5 -67 -38 l0 -21 -18 22
c-46 57 -135 79 -205 49 -74 -30 -148 -157 -168 -286 -7 -45 -9 -116 -5 -178
7 -114 -3 -148 -49 -178 -34 -22 -61 -10 -88 39 -20 37 -22 56 -21 167 0 92 6
148 22 213 27 110 27 113 -3 142 -26 27 -71 32 -135 16 -19 -5 -50 -12 -67
-15 -33 -5 -33 -5 -33 34 0 50 -27 80 -73 80 -88 0 -141 -119 -83 -187 l24
-28 -24 -70 c-25 -76 -103 -235 -134 -275 l-20 -25 0 256 0 257 -27 10 c-75
30 -123 22 -123 -21 -1 -20 -2 -20 -13 -6 -31 41 -89 69 -142 69 -40 0 -61 -6
-91 -26 -48 -33 -57 -44 -95 -118 -43 -83 -61 -178 -58 -316 3 -126 -8 -165
-56 -196 -33 -21 -59 -11 -82 34 -16 33 -18 64 -18 302 l0 265 -27 13 c-45 21
-98 20 -112 -3 -6 -11 -12 -22 -14 -24 -1 -3 -15 7 -30 21 -40 38 -65 48 -118
48 -90 0 -166 -70 -213 -195 -11 -29 -26 -109 -34 -178 -12 -101 -20 -136 -43
-177 -51 -94 -109 -117 -141 -57 -15 27 -19 63 -21 227 -2 107 -1 241 3 298
l7 102 98 0 c91 0 100 2 114 22 9 12 16 35 16 49 0 26 -3 28 -62 33 -35 4 -85
7 -113 9 l-50 2 4 101 3 102 -43 15 c-65 23 -92 27 -111 16z m684 -506 c28
-33 40 -65 49 -132 11 -85 -5 -229 -33 -292 -39 -92 -115 -127 -157 -73 -36
46 -46 93 -45 219 1 195 45 295 131 295 26 0 45 -6 55 -17z m717 -9 c69 -87
43 -400 -40 -483 -34 -34 -72 -40 -106 -16 -84 59 -72 407 17 497 39 38 99 40
129 2z m1224 -4 c81 -96 49 -430 -47 -493 -60 -40 -116 -4 -137 87 -17 76 -7
289 15 341 41 96 118 126 169 65z m-1163 -712 c-1 -67 -18 -224 -29 -265 -6
-23 -23 -56 -37 -73 -21 -25 -33 -30 -69 -30 -35 0 -48 5 -64 26 -35 45 -23
110 37 197 40 60 142 176 155 177 4 0 7 -15 7 -32z"/>
</g>
</symbol><symbol id="instagram" viewBox="0 0 44 45"><g fill="none">
<g id="Instagram">
<mask id="mask0_47_762" style="mask-type:luminance" maskUnits="userSpaceOnUse" x="0" y="0" width="44" height="45">
<path id="back" fill-rule="evenodd" clip-rule="evenodd" d="M0 22.4861C0 10.3986 9.84974 0.599854 22 0.599854C34.1503 0.599854 44 10.3986 44 22.4861C44 34.5735 34.1503 44.3723 22 44.3723C9.84974 44.3723 0 34.5735 0 22.4861Z" fill="white"/>
</mask>
<g mask="url(#mask0_47_762)">
<path id="back_2" fill-rule="evenodd" clip-rule="evenodd" d="M0 22.4861C0 10.3986 9.84974 0.599854 22 0.599854C34.1503 0.599854 44 10.3986 44 22.4861C44 34.5735 34.1503 44.3723 22 44.3723C9.84974 44.3723 0 34.5735 0 22.4861Z" fill="#0E5A4C"/>
<path id="Shape" fill-rule="evenodd" clip-rule="evenodd" d="M22.001 10.8134C18.8144 10.8134 18.4145 10.8272 17.1629 10.8839C15.9138 10.9408 15.0612 11.1375 14.3151 11.4262C13.5434 11.7243 12.8888 12.1231 12.2366 12.7722C11.5839 13.421 11.183 14.0722 10.8824 14.8397C10.5915 15.5822 10.3935 16.4306 10.3372 17.6728C10.2813 18.9179 10.2666 19.316 10.2666 22.4861C10.2666 25.6562 10.2808 26.0529 10.3375 27.298C10.3949 28.5406 10.5927 29.3889 10.8826 30.1311C11.1825 30.8988 11.5834 31.55 12.2359 32.1988C12.8878 32.8481 13.5424 33.2479 14.3137 33.5461C15.0602 33.8347 15.9131 34.0315 17.162 34.0884C18.4135 34.145 18.8132 34.1589 21.9996 34.1589C25.1864 34.1589 25.5851 34.145 26.8367 34.0884C28.0858 34.0315 28.9394 33.8347 29.686 33.5461C30.4574 33.2479 31.1111 32.8481 31.763 32.1988C32.4157 31.55 32.8166 30.8988 33.1173 30.1313C33.4057 29.3889 33.6037 28.5404 33.6624 27.2982C33.7186 26.0531 33.7333 25.6562 33.7333 22.4861C33.7333 19.316 33.7186 18.9181 33.6624 17.673C33.6037 16.4304 33.4057 15.5822 33.1173 14.84C32.8166 14.0722 32.4157 13.421 31.763 12.7722C31.1104 12.1229 30.4577 11.7241 29.6852 11.4262C28.9372 11.1375 28.0841 10.9408 26.835 10.8839C25.5834 10.8272 25.185 10.8134 21.9974 10.8134H22.001ZM20.9486 12.9172C21.261 12.9167 21.6096 12.9172 22.0012 12.9172C25.134 12.9172 25.5053 12.9284 26.7425 12.9843C27.8865 13.0363 28.5074 13.2265 28.921 13.3863C29.4686 13.5978 29.8589 13.8508 30.2694 14.2593C30.68 14.6678 30.9343 15.0569 31.1474 15.6017C31.308 16.0126 31.4994 16.6303 31.5515 17.7684C31.6077 18.9989 31.6199 19.3686 31.6199 22.4837C31.6199 25.5989 31.6077 25.9685 31.5515 27.199C31.4992 28.3371 31.308 28.9548 31.1474 29.3658C30.9347 29.9105 30.68 30.2984 30.2694 30.7067C29.8587 31.1153 29.4688 31.3682 28.921 31.5797C28.5079 31.7402 27.8865 31.9299 26.7425 31.982C25.5056 32.0379 25.134 32.05 22.0012 32.05C18.8681 32.05 18.4968 32.0379 17.2599 31.982C16.1159 31.9294 15.495 31.7393 15.0811 31.5795C14.5336 31.3679 14.1425 31.115 13.7318 30.7065C13.3211 30.2979 13.0669 29.9098 12.8537 29.3648C12.6931 28.9538 12.5017 28.3362 12.4497 27.1981C12.3934 25.9676 12.3822 25.5979 12.3822 22.4808C12.3822 19.3637 12.3934 18.996 12.4497 17.7655C12.502 16.6274 12.6931 16.0097 12.8537 15.5983C13.0664 15.0535 13.3211 14.6644 13.7318 14.2559C14.1425 13.8473 14.5336 13.5944 15.0811 13.3824C15.4947 13.2219 16.1159 13.0322 17.2599 12.9799C18.3423 12.9313 18.7618 12.9167 20.9486 12.9143V12.9172ZM28.2643 14.8551C27.487 14.8551 26.8563 15.4818 26.8563 16.2553C26.8563 17.0287 27.487 17.6561 28.2643 17.6561C29.0417 17.6561 29.6724 17.0287 29.6724 16.2553C29.6724 15.482 29.0417 14.8546 28.2643 14.8546V14.8551ZM22.0011 16.4919C18.6734 16.4919 15.9755 19.1759 15.9755 22.4864C15.9755 25.7968 18.6734 28.4796 22.0011 28.4796C25.3287 28.4796 28.0257 25.7968 28.0257 22.4864C28.0257 19.1759 25.3285 16.4919 22.0008 16.4919H22.0011ZM22.0012 18.5954C24.1612 18.5954 25.9124 20.3374 25.9124 22.4864C25.9124 24.6351 24.1612 26.3773 22.0012 26.3773C19.8411 26.3773 18.0901 24.6351 18.0901 22.4864C18.0901 20.3374 19.8411 18.5954 22.0012 18.5954Z" fill="white"/>
</g>
</g>
</g></symbol><symbol id="logo" viewBox="0 0 143 23"><g fill="none">
<path d="M0.26 15.79H4.55C4.59 16.69 5.02 17.37 5.84 17.83C6.68 18.29 7.66 18.52 8.78 18.52C11.46 18.52 12.8 17.64 12.8 15.88C12.8 15.42 12.69 15.02 12.47 14.68C12.27 14.34 12.04 14.09 11.78 13.93C11.52 13.75 11.15 13.6 10.67 13.48C10.19 13.36 9.79 13.28 9.47 13.24C9.17 13.2 8.75 13.16 8.21 13.12C3.11 12.68 0.56 10.69 0.56 7.15C0.56 4.97 1.32 3.33 2.84 2.23C4.36 1.11 6.26 0.549999 8.54 0.549999C9.58 0.549999 10.55 0.669999 11.45 0.91C12.37 1.13 13.22 1.48 14 1.96C14.78 2.44 15.4 3.11 15.86 3.97C16.32 4.81 16.55 5.79 16.55 6.91H12.35C12.23 6.11 11.81 5.51 11.09 5.11C10.37 4.69 9.52 4.48 8.54 4.48C7.58 4.48 6.74 4.72 6.02 5.2C5.32 5.66 4.97 6.28 4.97 7.06C4.97 7.9 5.31 8.5 5.99 8.86C6.69 9.2 7.69 9.44 8.99 9.58C10.25 9.7 11.31 9.86 12.17 10.06C13.05 10.26 13.9 10.58 14.72 11.02C15.56 11.46 16.19 12.09 16.61 12.91C17.03 13.71 17.24 14.7 17.24 15.88C17.24 17.06 17 18.09 16.52 18.97C16.04 19.85 15.38 20.53 14.54 21.01C13.72 21.49 12.83 21.84 11.87 22.06C10.93 22.3 9.91 22.43 8.81 22.45C6.49 22.45 4.48 21.88 2.78 20.74C1.1 19.58 0.26 17.93 0.26 15.79ZM34.898 22H30.668V13.63C30.708 12.69 30.458 11.94 29.918 11.38C29.398 10.82 28.738 10.54 27.938 10.54C27.098 10.54 26.378 10.83 25.778 11.41C25.178 11.97 24.878 12.74 24.878 13.72V22H20.678V12.01C20.678 11.57 20.668 11.26 20.648 11.08C20.648 10.9 20.598 10.72 20.498 10.54C20.418 10.36 20.278 10.25 20.078 10.21C19.898 10.15 19.638 10.12 19.298 10.12V7.51C22.818 6.91 24.578 7.56 24.578 9.46C24.958 8.68 25.578 8.11 26.438 7.75C27.318 7.39 28.238 7.21 29.198 7.21C31.138 7.21 32.568 7.8 33.488 8.98C34.428 10.16 34.898 11.71 34.898 13.63V22ZM45.3458 7.18C47.9258 7.18 49.7758 7.96 50.8958 9.52C52.0358 11.08 52.3258 13.12 51.7658 15.64H41.9558C42.0958 17.64 43.3758 18.73 45.7958 18.91C46.6358 18.95 47.2758 18.94 47.7158 18.88C49.0758 18.72 50.2258 18.43 51.1658 18.01L51.6458 21.07C49.8258 21.93 47.9558 22.36 46.0358 22.36C43.5758 22.4 41.5758 21.72 40.0358 20.32C38.5158 18.92 37.7558 17.01 37.7558 14.59C37.7958 12.21 38.5458 10.38 40.0058 9.1C41.4858 7.82 43.2658 7.18 45.3458 7.18ZM45.3458 10.39C44.5058 10.39 43.7758 10.62 43.1558 11.08C42.5358 11.52 42.1458 12.14 41.9858 12.94H48.3458C48.3858 12.06 48.1158 11.42 47.5358 11.02C46.9558 10.6 46.2258 10.39 45.3458 10.39ZM64.3899 19.78C63.9899 20.62 63.3099 21.25 62.3499 21.67C61.4099 22.07 60.4199 22.27 59.3799 22.27C57.9799 22.27 56.7599 21.86 55.7199 21.04C54.6999 20.2 54.1699 19.1 54.1299 17.74C54.0499 16.04 54.5399 14.75 55.5999 13.87C56.6599 12.97 58.0399 12.52 59.7399 12.52C61.3199 12.52 62.5999 12.83 63.5799 13.45V12.46C63.5799 11.08 62.3799 10.39 59.9799 10.39C58.2399 10.39 56.8499 10.68 55.8099 11.26L55.2699 8.26C56.7899 7.54 58.5999 7.18 60.6999 7.18C65.2999 7.18 67.5999 8.98 67.5999 12.58V17.8C67.5999 18.2 67.5999 18.48 67.5999 18.64C67.6199 18.8 67.6699 18.99 67.7499 19.21C67.8299 19.41 67.9599 19.54 68.1399 19.6C68.3399 19.66 68.6099 19.68 68.9499 19.66L68.9799 22C68.2199 22.14 67.4999 22.21 66.8199 22.21C66.1399 22.21 65.5599 22.01 65.0799 21.61C64.6199 21.19 64.3899 20.58 64.3899 19.78ZM63.4899 16.81V16.06C62.6699 15.5 61.6699 15.22 60.4899 15.22C59.7899 15.26 59.2199 15.48 58.7799 15.88C58.3399 16.26 58.1599 16.79 58.2399 17.47C58.2799 17.97 58.4899 18.36 58.8699 18.64C59.2499 18.9 59.6999 19.03 60.2199 19.03C60.9999 19.03 61.7199 18.84 62.3799 18.46C63.0599 18.06 63.4299 17.51 63.4899 16.81ZM75.9013 12.85H76.9213C78.4613 12.85 79.5413 12.38 80.1613 11.44C80.7813 10.48 81.0913 9.17 81.0913 7.51H85.0513C85.0913 9.19 84.8613 10.63 84.3613 11.83C83.8613 13.01 82.9413 13.95 81.6013 14.65L85.7413 21.55V21.97H81.5113L78.0613 15.97C77.7013 16.09 77.3013 16.15 76.8613 16.15H75.9013V21.97H71.7313V0.0699998H75.9013V12.85ZM98.8147 10.93L107.245 0.939999H108.865V22H104.365V10.63L99.0847 17.23H98.5147L93.2347 10.63V22H88.7347V0.939999H90.3847L98.8147 10.93ZM122.281 19.78C121.881 20.62 121.201 21.25 120.241 21.67C119.301 22.07 118.311 22.27 117.271 22.27C115.871 22.27 114.651 21.86 113.611 21.04C112.591 20.2 112.061 19.1 112.021 17.74C111.941 16.04 112.431 14.75 113.491 13.87C114.551 12.97 115.931 12.52 117.631 12.52C119.211 12.52 120.491 12.83 121.471 13.45V12.46C121.471 11.08 120.271 10.39 117.871 10.39C116.131 10.39 114.741 10.68 113.701 11.26L113.161 8.26C114.681 7.54 116.491 7.18 118.591 7.18C123.191 7.18 125.491 8.98 125.491 12.58V17.8C125.491 18.2 125.491 18.48 125.491 18.64C125.511 18.8 125.561 18.99 125.641 19.21C125.721 19.41 125.851 19.54 126.031 19.6C126.231 19.66 126.501 19.68 126.841 19.66L126.871 22C126.111 22.14 125.391 22.21 124.711 22.21C124.031 22.21 123.451 22.01 122.971 21.61C122.511 21.19 122.281 20.58 122.281 19.78ZM121.381 16.81V16.06C120.561 15.5 119.561 15.22 118.381 15.22C117.681 15.26 117.111 15.48 116.671 15.88C116.231 16.26 116.051 16.79 116.131 17.47C116.171 17.97 116.381 18.36 116.761 18.64C117.141 18.9 117.591 19.03 118.111 19.03C118.891 19.03 119.611 18.84 120.271 18.46C120.951 18.06 121.321 17.51 121.381 16.81ZM135.652 16.9H135.562L133.852 19.78L132.292 22H128.092V21.52L133.102 14.32L128.812 7.99V7.54H132.832L134.122 9.43L135.502 11.86H135.592L136.942 9.4L138.202 7.54H142.492V8.02L138.052 14.47L142.942 21.52V22H138.892L137.272 19.66L135.652 16.9Z" fill="white"/>
</g></symbol><symbol id="question"><g fill="none">
  <path fill="#444B58" d="M3.78 7.59H2.184a4.132 4.132 0 0 1 .14-1.317 2.85 2.85 0 0 1 .476-.938 9 9 0 0 1 .616-.686c.205-.205.401-.43.588-.672.196-.252.327-.513.392-.784.075-.55-.037-.98-.336-1.288-.299-.317-.69-.476-1.176-.476-.364 0-.695.122-.994.364a1.456 1.456 0 0 0-.532.966H0C.037 1.854.313 1.168.826.701c.523-.466 1.204-.7 2.044-.7.775-.018 1.451.173 2.03.574.588.402.938.929 1.05 1.582.056.355.065.663.028.924a2.356 2.356 0 0 1-.322.952c-.168.29-.36.546-.574.77-.205.224-.41.462-.616.714A3.115 3.115 0 0 0 3.78 7.59ZM3.626 9.8a.9.9 0 0 1-.644.238c-.261 0-.485-.08-.672-.238a.788.788 0 0 1-.266-.616.79.79 0 0 1 .266-.616c.187-.158.41-.238.672-.238a.9.9 0 0 1 .644.238.788.788 0 0 1 .266.616.788.788 0 0 1-.266.616Z"/>
</g></symbol><symbol id="vk"><g fill="none">
  <g fill-rule="evenodd" clip-rule="evenodd">
    <path fill="#0E5A4C" d="M0 22.486C0 10.4 9.85.6 22 .6s22 9.799 22 21.886c0 12.088-9.85 21.886-22 21.886S0 34.574 0 22.486Z"/>
    <path fill="#fff" d="M23.15 29.669s.424-.046.641-.274c.199-.208.192-.601.192-.601s-.027-1.838.847-2.109c.86-.266 1.966 1.777 3.14 2.562.885.595 1.558.465 1.558.465l3.134-.043s1.64-.099.862-1.357c-.064-.104-.453-.932-2.33-2.633-1.966-1.781-1.702-1.493.665-4.574 1.441-1.876 2.018-3.022 1.837-3.512-.17-.468-1.231-.344-1.231-.344l-3.528.021s-.262-.034-.456.079c-.19.11-.312.37-.312.37s-.558 1.451-1.303 2.686c-1.571 2.605-2.199 2.743-2.456 2.582-.598-.378-.449-1.516-.449-2.324 0-2.525.393-3.577-.763-3.85-.384-.09-.666-.15-1.647-.16-1.26-.012-2.324.004-2.928.293-.402.191-.712.62-.522.644.233.03.76.139 1.04.511.362.48.35 1.56.35 1.56s.207 2.971-.486 3.34c-.475.253-1.127-.263-2.528-2.627-.718-1.21-1.26-2.549-1.26-2.549s-.104-.25-.291-.384a1.466 1.466 0 0 0-.542-.213l-3.352.021s-.504.014-.689.228c-.164.19-.013.583-.013.583s2.625 5.997 5.598 9.02c2.726 2.77 5.82 2.589 5.82 2.589h1.403Z"/>
  </g>
</g></symbol></svg>