<svg xmlns="http://www.w3.org/2000/svg" xmlns:xlink="http://www.w3.org/1999/xlink"><defs>
    <clipPath id="a">
      <path fill="#fff" d="M0 0h20v20H0z"/>
    </clipPath>
  </defs><symbol id="basket"><g fill="none">
  <g fill="#4D4D4D" fill-opacity=".3" clip-path="url(#a)">
    <path d="M18.572 2.857h-5v-.714A2.144 2.144 0 0 0 11.428 0H8.572C7.388 0 6.429.96 6.429 2.143v.714h-5a.714.714 0 1 0 0 1.429h.776L3.572 19.35c.033.369.343.65.714.649h11.428c.37.002.681-.28.715-.65l1.366-15.064h.776a.714.714 0 1 0 0-1.429ZM7.857 2.143c0-.395.32-.714.715-.714h2.857c.394 0 .714.32.714.714v.714H7.857v-.714Zm7.205 16.428H4.938L3.643 4.286H16.36L15.062 18.57Z"/>
    <path d="M7.857 16.381v-.003l-.714-10a.716.716 0 0 0-1.429.101l.715 10a.714.714 0 0 0 .714.664h.051a.714.714 0 0 0 .663-.762ZM10 5.714a.714.714 0 0 0-.714.715v10a.714.714 0 1 0 1.428 0v-10A.714.714 0 0 0 10 5.714Zm3.622 0a.716.716 0 0 0-.765.664l-.714 10a.714.714 0 0 0 .66.764h.053a.713.713 0 0 0 .715-.663l.715-10a.716.716 0 0 0-.664-.765Z"/>
  </g>
  
</g></symbol><symbol id="cart"><g fill="none">
  <path fill="#fff" d="M20 6.579h-3.396L13.036.319a.608.608 0 0 0-.858-.225.678.678 0 0 0-.214.902l3.182 5.583H4.854L8.036.996a.678.678 0 0 0-.214-.902.608.608 0 0 0-.858.225L3.396 6.58H0v1.316h1.357l1.587 8.915c.166.934.941 1.611 1.844 1.611h10.424c.902 0 1.678-.677 1.843-1.61l1.588-8.916H20V6.579Zm-4.174 9.99a.634.634 0 0 1-.614.536H4.788a.634.634 0 0 1-.615-.537L2.628 7.895h14.744l-1.546 8.674Z"/>
</g></symbol><symbol id="icon-close" viewBox="0 0 20 20"><g fill="none"><path d="M.293 18.291a1 1 0 101.414 1.414L10 11.413l8.292 8.292a1 1 0 101.414-1.414l-8.292-8.292 8.292-8.292A1 1 0 1018.291.293L9.999 8.585 1.707.293A1 1 0 10.293 1.707L8.585 10 .293 18.291z"/></g></symbol><symbol id="instagram" viewBox="0 0 44 45"><g fill="none">
<g id="Instagram">
<mask id="mask0_47_762" style="mask-type:luminance" maskUnits="userSpaceOnUse" x="0" y="0" width="44" height="45">
<path id="back" fill-rule="evenodd" clip-rule="evenodd" d="M0 22.4861C0 10.3986 9.84974 0.599854 22 0.599854C34.1503 0.599854 44 10.3986 44 22.4861C44 34.5735 34.1503 44.3723 22 44.3723C9.84974 44.3723 0 34.5735 0 22.4861Z" fill="white"/>
</mask>
<g mask="url(#mask0_47_762)">
<path id="back_2" fill-rule="evenodd" clip-rule="evenodd" d="M0 22.4861C0 10.3986 9.84974 0.599854 22 0.599854C34.1503 0.599854 44 10.3986 44 22.4861C44 34.5735 34.1503 44.3723 22 44.3723C9.84974 44.3723 0 34.5735 0 22.4861Z" fill="#0E5A4C"/>
<path id="Shape" fill-rule="evenodd" clip-rule="evenodd" d="M22.001 10.8134C18.8144 10.8134 18.4145 10.8272 17.1629 10.8839C15.9138 10.9408 15.0612 11.1375 14.3151 11.4262C13.5434 11.7243 12.8888 12.1231 12.2366 12.7722C11.5839 13.421 11.183 14.0722 10.8824 14.8397C10.5915 15.5822 10.3935 16.4306 10.3372 17.6728C10.2813 18.9179 10.2666 19.316 10.2666 22.4861C10.2666 25.6562 10.2808 26.0529 10.3375 27.298C10.3949 28.5406 10.5927 29.3889 10.8826 30.1311C11.1825 30.8988 11.5834 31.55 12.2359 32.1988C12.8878 32.8481 13.5424 33.2479 14.3137 33.5461C15.0602 33.8347 15.9131 34.0315 17.162 34.0884C18.4135 34.145 18.8132 34.1589 21.9996 34.1589C25.1864 34.1589 25.5851 34.145 26.8367 34.0884C28.0858 34.0315 28.9394 33.8347 29.686 33.5461C30.4574 33.2479 31.1111 32.8481 31.763 32.1988C32.4157 31.55 32.8166 30.8988 33.1173 30.1313C33.4057 29.3889 33.6037 28.5404 33.6624 27.2982C33.7186 26.0531 33.7333 25.6562 33.7333 22.4861C33.7333 19.316 33.7186 18.9181 33.6624 17.673C33.6037 16.4304 33.4057 15.5822 33.1173 14.84C32.8166 14.0722 32.4157 13.421 31.763 12.7722C31.1104 12.1229 30.4577 11.7241 29.6852 11.4262C28.9372 11.1375 28.0841 10.9408 26.835 10.8839C25.5834 10.8272 25.185 10.8134 21.9974 10.8134H22.001ZM20.9486 12.9172C21.261 12.9167 21.6096 12.9172 22.0012 12.9172C25.134 12.9172 25.5053 12.9284 26.7425 12.9843C27.8865 13.0363 28.5074 13.2265 28.921 13.3863C29.4686 13.5978 29.8589 13.8508 30.2694 14.2593C30.68 14.6678 30.9343 15.0569 31.1474 15.6017C31.308 16.0126 31.4994 16.6303 31.5515 17.7684C31.6077 18.9989 31.6199 19.3686 31.6199 22.4837C31.6199 25.5989 31.6077 25.9685 31.5515 27.199C31.4992 28.3371 31.308 28.9548 31.1474 29.3658C30.9347 29.9105 30.68 30.2984 30.2694 30.7067C29.8587 31.1153 29.4688 31.3682 28.921 31.5797C28.5079 31.7402 27.8865 31.9299 26.7425 31.982C25.5056 32.0379 25.134 32.05 22.0012 32.05C18.8681 32.05 18.4968 32.0379 17.2599 31.982C16.1159 31.9294 15.495 31.7393 15.0811 31.5795C14.5336 31.3679 14.1425 31.115 13.7318 30.7065C13.3211 30.2979 13.0669 29.9098 12.8537 29.3648C12.6931 28.9538 12.5017 28.3362 12.4497 27.1981C12.3934 25.9676 12.3822 25.5979 12.3822 22.4808C12.3822 19.3637 12.3934 18.996 12.4497 17.7655C12.502 16.6274 12.6931 16.0097 12.8537 15.5983C13.0664 15.0535 13.3211 14.6644 13.7318 14.2559C14.1425 13.8473 14.5336 13.5944 15.0811 13.3824C15.4947 13.2219 16.1159 13.0322 17.2599 12.9799C18.3423 12.9313 18.7618 12.9167 20.9486 12.9143V12.9172ZM28.2643 14.8551C27.487 14.8551 26.8563 15.4818 26.8563 16.2553C26.8563 17.0287 27.487 17.6561 28.2643 17.6561C29.0417 17.6561 29.6724 17.0287 29.6724 16.2553C29.6724 15.482 29.0417 14.8546 28.2643 14.8546V14.8551ZM22.0011 16.4919C18.6734 16.4919 15.9755 19.1759 15.9755 22.4864C15.9755 25.7968 18.6734 28.4796 22.0011 28.4796C25.3287 28.4796 28.0257 25.7968 28.0257 22.4864C28.0257 19.1759 25.3285 16.4919 22.0008 16.4919H22.0011ZM22.0012 18.5954C24.1612 18.5954 25.9124 20.3374 25.9124 22.4864C25.9124 24.6351 24.1612 26.3773 22.0012 26.3773C19.8411 26.3773 18.0901 24.6351 18.0901 22.4864C18.0901 20.3374 19.8411 18.5954 22.0012 18.5954Z" fill="white"/>
</g>
</g>
</g></symbol><symbol id="question"><g fill="none">
  <path fill="#444B58" d="M3.78 7.59H2.184a4.132 4.132 0 0 1 .14-1.317 2.85 2.85 0 0 1 .476-.938 9 9 0 0 1 .616-.686c.205-.205.401-.43.588-.672.196-.252.327-.513.392-.784.075-.55-.037-.98-.336-1.288-.299-.317-.69-.476-1.176-.476-.364 0-.695.122-.994.364a1.456 1.456 0 0 0-.532.966H0C.037 1.854.313 1.168.826.701c.523-.466 1.204-.7 2.044-.7.775-.018 1.451.173 2.03.574.588.402.938.929 1.05 1.582.056.355.065.663.028.924a2.356 2.356 0 0 1-.322.952c-.168.29-.36.546-.574.77-.205.224-.41.462-.616.714A3.115 3.115 0 0 0 3.78 7.59ZM3.626 9.8a.9.9 0 0 1-.644.238c-.261 0-.485-.08-.672-.238a.788.788 0 0 1-.266-.616.79.79 0 0 1 .266-.616c.187-.158.41-.238.672-.238a.9.9 0 0 1 .644.238.788.788 0 0 1 .266.616.788.788 0 0 1-.266.616Z"/>
</g></symbol><symbol id="vk"><g fill="none">
  <g fill-rule="evenodd" clip-rule="evenodd">
    <path fill="#0E5A4C" d="M0 22.486C0 10.4 9.85.6 22 .6s22 9.799 22 21.886c0 12.088-9.85 21.886-22 21.886S0 34.574 0 22.486Z"/>
    <path fill="#fff" d="M23.15 29.669s.424-.046.641-.274c.199-.208.192-.601.192-.601s-.027-1.838.847-2.109c.86-.266 1.966 1.777 3.14 2.562.885.595 1.558.465 1.558.465l3.134-.043s1.64-.099.862-1.357c-.064-.104-.453-.932-2.33-2.633-1.966-1.781-1.702-1.493.665-4.574 1.441-1.876 2.018-3.022 1.837-3.512-.17-.468-1.231-.344-1.231-.344l-3.528.021s-.262-.034-.456.079c-.19.11-.312.37-.312.37s-.558 1.451-1.303 2.686c-1.571 2.605-2.199 2.743-2.456 2.582-.598-.378-.449-1.516-.449-2.324 0-2.525.393-3.577-.763-3.85-.384-.09-.666-.15-1.647-.16-1.26-.012-2.324.004-2.928.293-.402.191-.712.62-.522.644.233.03.76.139 1.04.511.362.48.35 1.56.35 1.56s.207 2.971-.486 3.34c-.475.253-1.127-.263-2.528-2.627-.718-1.21-1.26-2.549-1.26-2.549s-.104-.25-.291-.384a1.466 1.466 0 0 0-.542-.213l-3.352.021s-.504.014-.689.228c-.164.19-.013.583-.013.583s2.625 5.997 5.598 9.02c2.726 2.77 5.82 2.589 5.82 2.589h1.403Z"/>
  </g>
</g></symbol></svg>