<?xml version="1.0" standalone="no"?>
<!DOCTYPE svg PUBLIC "-//W3C//DTD SVG 20010904//EN"
 "http://www.w3.org/TR/2001/REC-SVG-20010904/DTD/svg10.dtd">
<svg version="1.0" xmlns="http://www.w3.org/2000/svg"
 width="628.000000pt" height="223.000000pt" viewBox="0 0 628.000000 223.000000"
 preserveAspectRatio="xMidYMid meet">

<g transform="translate(0.000000,223.000000) scale(0.100000,-0.100000)"
fill="#000000" stroke="none">
<path d="M455 1856 c-102 -51 -216 -196 -255 -325 -42 -133 -11 -234 92 -303
76 -52 101 -34 62 44 -51 100 -43 240 21 373 18 39 50 86 70 105 l36 35 -4
-520 c-3 -458 -5 -527 -21 -579 -22 -73 -17 -90 21 -75 40 15 91 67 118 120
42 81 46 145 43 638 l-3 465 -30 17 c-54 31 -95 33 -150 5z"/>
<path d="M2118 1869 c-14 -8 -18 -23 -18 -67 0 -31 -3 -81 -7 -110 l-6 -54
-81 3 c-77 3 -81 2 -93 -21 -7 -14 -13 -40 -13 -57 l0 -33 53 0 c28 0 69 -3
90 -6 l37 -7 0 -191 c0 -177 -2 -195 -24 -248 -13 -31 -38 -76 -57 -99 l-34
-43 -6 57 c-9 78 -39 120 -148 203 -87 66 -103 85 -81 99 22 13 60 106 60 144
0 47 -18 61 -75 61 -58 0 -111 -36 -140 -94 -30 -61 -31 -86 -4 -141 l21 -42
-52 -94 c-102 -184 -162 -260 -187 -235 -16 16 -21 120 -16 301 4 146 3 207
-6 223 -14 25 -100 72 -133 72 -33 0 -93 -39 -123 -80 -37 -49 -78 -132 -111
-225 l-29 -80 -3 177 -2 177 -54 17 c-93 29 -87 53 -84 -347 l3 -351 24 -19
c23 -19 85 -26 107 -11 6 4 14 30 18 57 16 118 96 357 148 444 29 47 78 111
86 111 4 0 7 -118 7 -262 0 -231 2 -267 17 -295 38 -69 88 -79 159 -34 57 36
88 74 169 206 36 58 77 127 93 151 l27 45 50 -41 c26 -22 63 -62 80 -88 28
-42 31 -53 27 -101 -7 -93 -62 -114 -149 -56 -21 14 -46 25 -57 25 -20 0 -53
-39 -65 -77 -17 -53 95 -99 220 -91 132 9 234 82 299 217 l28 56 13 -62 c26
-129 80 -199 162 -210 66 -9 126 36 180 136 l30 53 11 -35 c33 -98 121 -164
207 -154 57 6 129 50 162 97 15 22 30 39 34 40 3 0 9 -14 13 -30 16 -71 111
-123 184 -101 38 11 111 80 111 104 0 6 13 -8 29 -30 33 -46 101 -83 152 -83
47 1 117 34 162 78 l37 36 0 -34 c0 -30 -14 -46 -130 -157 -104 -100 -136
-137 -161 -188 -50 -103 -33 -185 50 -242 69 -47 185 -42 253 10 91 71 128
194 128 431 l0 143 46 59 c85 109 173 264 219 387 l18 47 60 0 60 0 -6 -28
c-33 -163 -32 -330 1 -405 41 -93 121 -147 197 -133 39 8 100 56 110 87 9 27
17 24 42 -15 24 -38 94 -76 140 -76 69 0 143 43 193 111 l28 39 7 -27 c10 -42
43 -82 85 -103 73 -37 138 -20 181 48 30 47 31 47 41 -23 4 -25 43 -45 91 -45
70 0 73 5 81 137 3 65 13 148 21 185 16 78 75 230 91 235 7 2 13 -39 18 -124
16 -297 43 -373 135 -373 50 0 61 14 61 78 0 73 34 234 71 337 17 47 34 87 37
89 4 2 8 -64 8 -147 2 -232 31 -336 103 -385 100 -66 191 -25 231 105 23 75
25 116 7 131 -21 17 -33 1 -55 -74 -24 -78 -39 -97 -74 -92 -56 8 -82 154 -72
413 6 159 6 160 -17 181 -26 23 -99 54 -128 54 -10 0 -25 -8 -35 -18 -23 -26
-73 -165 -106 -297 -18 -67 -29 -98 -30 -80 -1 17 -5 96 -8 177 -7 136 -9 149
-31 172 -29 31 -83 50 -116 42 -30 -8 -59 -63 -106 -201 l-34 -100 -3 137 -3
137 -51 16 c-28 8 -57 15 -64 15 -29 0 -34 -42 -34 -264 0 -206 -2 -230 -22
-283 -22 -60 -65 -113 -92 -113 -24 0 -53 38 -61 78 -4 20 -6 147 -6 284 1
246 1 247 -21 262 -13 7 -40 17 -61 20 -44 8 -67 -5 -67 -38 l0 -21 -18 22
c-46 57 -135 79 -205 49 -74 -30 -148 -157 -168 -286 -7 -45 -9 -116 -5 -178
7 -114 -3 -148 -49 -178 -34 -22 -61 -10 -88 39 -20 37 -22 56 -21 167 0 92 6
148 22 213 27 110 27 113 -3 142 -26 27 -71 32 -135 16 -19 -5 -50 -12 -67
-15 -33 -5 -33 -5 -33 34 0 50 -27 80 -73 80 -88 0 -141 -119 -83 -187 l24
-28 -24 -70 c-25 -76 -103 -235 -134 -275 l-20 -25 0 256 0 257 -27 10 c-75
30 -123 22 -123 -21 -1 -20 -2 -20 -13 -6 -31 41 -89 69 -142 69 -40 0 -61 -6
-91 -26 -48 -33 -57 -44 -95 -118 -43 -83 -61 -178 -58 -316 3 -126 -8 -165
-56 -196 -33 -21 -59 -11 -82 34 -16 33 -18 64 -18 302 l0 265 -27 13 c-45 21
-98 20 -112 -3 -6 -11 -12 -22 -14 -24 -1 -3 -15 7 -30 21 -40 38 -65 48 -118
48 -90 0 -166 -70 -213 -195 -11 -29 -26 -109 -34 -178 -12 -101 -20 -136 -43
-177 -51 -94 -109 -117 -141 -57 -15 27 -19 63 -21 227 -2 107 -1 241 3 298
l7 102 98 0 c91 0 100 2 114 22 9 12 16 35 16 49 0 26 -3 28 -62 33 -35 4 -85
7 -113 9 l-50 2 4 101 3 102 -43 15 c-65 23 -92 27 -111 16z m684 -506 c28
-33 40 -65 49 -132 11 -85 -5 -229 -33 -292 -39 -92 -115 -127 -157 -73 -36
46 -46 93 -45 219 1 195 45 295 131 295 26 0 45 -6 55 -17z m717 -9 c69 -87
43 -400 -40 -483 -34 -34 -72 -40 -106 -16 -84 59 -72 407 17 497 39 38 99 40
129 2z m1224 -4 c81 -96 49 -430 -47 -493 -60 -40 -116 -4 -137 87 -17 76 -7
289 15 341 41 96 118 126 169 65z m-1163 -712 c-1 -67 -18 -224 -29 -265 -6
-23 -23 -56 -37 -73 -21 -25 -33 -30 -69 -30 -35 0 -48 5 -64 26 -35 45 -23
110 37 197 40 60 142 176 155 177 4 0 7 -15 7 -32z"/>
</g>
</svg>
