<svg width="141" height="77" viewBox="0 0 141 77" fill="none" xmlns="http://www.w3.org/2000/svg">
<path d="M67.0184 24.5183C66.7188 24.8274 66.3101 25 65.8854 25C65.4607 25 65.0521 24.8274 64.7524 24.5183L55.7043 15.2351C54.7652 14.2717 54.7652 12.71 55.7043 11.7483L56.8373 10.5861C57.7764 9.62272 59.2973 9.62272 60.2364 10.5861L65.8854 16.3809L81.1498 0.722505C82.0889 -0.240835 83.6114 -0.240835 84.5489 0.722505L85.6819 1.88476C86.621 2.8481 86.621 4.40983 85.6819 5.37153L67.0184 24.5183Z" fill="#0E5A4C"/>
<path d="M18.216 57.6C18.216 60.16 17.416 62.248 15.816 63.864C14.216 65.48 12.152 66.288 9.624 66.288C7.224 66.288 5.2 65.504 3.552 63.936C1.92 62.352 1.104 60.24 1.104 57.6C1.104 54.96 1.936 52.856 3.6 51.288C5.264 49.704 7.288 48.912 9.672 48.912C12.056 48.912 14.072 49.704 15.72 51.288C17.384 52.856 18.216 54.96 18.216 57.6ZM5.568 53.16C4.48 54.232 3.936 55.712 3.936 57.6C3.936 59.488 4.48 60.968 5.568 62.04C6.656 63.112 8.024 63.648 9.672 63.648C11.32 63.648 12.688 63.112 13.776 62.04C14.88 60.968 15.432 59.488 15.432 57.6C15.432 55.744 14.88 54.272 13.776 53.184C12.688 52.08 11.328 51.528 9.696 51.528C8.048 51.528 6.672 52.072 5.568 53.16ZM26.1285 65.976H23.5845V56.712H19.8645V54.432H29.8725V56.712H26.1285V65.976ZM32.1259 54.432H42.7339V66H40.1419V56.736H34.7659V66H32.1259V54.432ZM48.7575 56.304C49.3655 54.848 50.6855 54.12 52.7175 54.12C54.3495 54.12 55.6295 54.704 56.5575 55.872C57.4855 57.04 57.9495 58.464 57.9495 60.144C57.9495 61.968 57.3815 63.44 56.2455 64.56C55.1095 65.68 53.7495 66.2 52.1655 66.12C51.1415 66.072 50.1655 65.768 49.2375 65.208V71.952H46.6215V58.128C46.6215 57.264 46.5735 56.744 46.4775 56.568C46.3335 56.28 45.9735 56.136 45.3975 56.136L45.3735 54.336C47.6295 53.888 48.7575 54.544 48.7575 56.304ZM49.1895 59.664V62.904C50.1495 63.576 51.1335 63.888 52.1415 63.84C53.0535 63.808 53.8055 63.472 54.3975 62.832C55.0055 62.176 55.3095 61.28 55.3095 60.144C55.3095 59.12 55.0375 58.248 54.4935 57.528C53.9495 56.808 53.1815 56.448 52.1895 56.448C51.3095 56.448 50.5895 56.76 50.0295 57.384C49.4695 58.008 49.1895 58.768 49.1895 59.664ZM68.1379 64.056C67.7699 64.776 67.1939 65.32 66.4099 65.688C65.6259 66.04 64.7859 66.216 63.8899 66.216C62.7699 66.216 61.7939 65.888 60.9619 65.232C60.1459 64.576 59.7379 63.704 59.7379 62.616C59.7059 61.288 60.1059 60.28 60.9379 59.592C61.7859 58.888 62.8819 58.536 64.2259 58.536C65.4899 58.536 66.6339 58.824 67.6579 59.4V58.248C67.6579 57.544 67.3779 57.016 66.8179 56.664C66.2739 56.312 65.6179 56.144 64.8499 56.16C64.0979 56.176 63.3699 56.256 62.6659 56.4C61.9619 56.544 61.4099 56.72 61.0099 56.928L60.6259 55.056C61.8099 54.448 63.2339 54.144 64.8979 54.144C66.4659 54.144 67.7379 54.472 68.7139 55.128C69.7059 55.768 70.2019 56.832 70.2019 58.32V62.88C70.2019 63.248 70.2019 63.504 70.2019 63.648C70.2179 63.776 70.2579 63.944 70.3219 64.152C70.4019 64.344 70.5219 64.464 70.6819 64.512C70.8579 64.56 71.0979 64.568 71.4019 64.536L71.4499 66.024C70.8259 66.12 70.2739 66.168 69.7939 66.168C69.3139 66.168 68.9219 66 68.6179 65.664C68.3139 65.312 68.1539 64.776 68.1379 64.056ZM67.6579 62.04V61.08C66.7139 60.52 65.7139 60.256 64.6579 60.288C63.9859 60.304 63.4259 60.504 62.9779 60.888C62.5299 61.272 62.3059 61.8 62.3059 62.472C62.3059 63.016 62.5139 63.432 62.9299 63.72C63.3459 64.008 63.8419 64.152 64.4179 64.152C65.1859 64.152 65.8819 63.976 66.5059 63.624C67.1459 63.256 67.5299 62.728 67.6579 62.04ZM83.2538 57.456C83.2538 58.64 82.7258 59.416 81.6698 59.784C82.3738 59.976 82.9178 60.336 83.3018 60.864C83.6858 61.392 83.8778 62.008 83.8778 62.712C83.8778 63.288 83.7738 63.784 83.5658 64.2C83.3578 64.616 83.0938 64.944 82.7738 65.184C82.4698 65.408 82.0778 65.592 81.5978 65.736C81.1338 65.864 80.6938 65.944 80.2778 65.976C79.8778 66.008 79.4138 66.024 78.8858 66.024H73.7978V54.408H78.2378C78.7658 54.408 79.2138 54.424 79.5818 54.456C79.9658 54.472 80.4058 54.536 80.9018 54.648C81.4138 54.76 81.8218 54.92 82.1258 55.128C82.4298 55.336 82.6938 55.64 82.9178 56.04C83.1418 56.424 83.2538 56.896 83.2538 57.456ZM76.3418 64.008H78.6218C79.0218 64.008 79.3338 64 79.5578 63.984C79.7818 63.968 80.0538 63.92 80.3738 63.84C80.6938 63.744 80.9338 63.584 81.0938 63.36C81.2538 63.12 81.3338 62.816 81.3338 62.448C81.3338 62.096 81.2458 61.808 81.0698 61.584C80.9098 61.344 80.6698 61.184 80.3498 61.104C80.0298 61.008 79.7338 60.944 79.4618 60.912C79.2058 60.88 78.8858 60.864 78.5018 60.864H76.3418V64.008ZM76.3418 59.088H78.3818C79.9178 59.088 80.6858 58.632 80.6858 57.72C80.6858 56.792 79.9178 56.328 78.3818 56.328H76.3418V59.088ZM94.782 56.736H90.798L90.246 61.896C90.07 63.736 89.646 64.944 88.974 65.52C88.302 66.096 87.054 66.256 85.23 66L85.278 64.08C86.206 64.208 86.806 64.104 87.078 63.768C87.366 63.432 87.566 62.776 87.678 61.8L88.542 54.432H97.35V66H94.782V56.736ZM106.031 54.168C108.031 54.168 109.479 54.768 110.375 55.968C111.271 57.168 111.527 58.744 111.143 60.696H102.599C102.599 61.72 102.951 62.536 103.655 63.144C104.375 63.752 105.279 64.056 106.367 64.056C107.903 64.136 109.303 63.896 110.567 63.336L110.903 65.28C109.431 65.936 107.975 66.264 106.535 66.264C104.599 66.296 103.015 65.736 101.783 64.584C100.551 63.432 99.9669 61.896 100.031 59.976C100.063 58.136 100.655 56.712 101.807 55.704C102.959 54.68 104.367 54.168 106.031 54.168ZM106.007 56.184C104.119 56.184 102.999 57.072 102.647 58.848H109.031C109.063 58.016 108.783 57.368 108.191 56.904C107.615 56.424 106.887 56.184 106.007 56.184ZM122.082 54.432H124.626V66H122.082V61.152H116.49V66H113.97V54.432H116.49V58.872H122.082V54.432ZM139.528 60.168C139.528 62.072 138.92 63.56 137.704 64.632C136.488 65.688 135.056 66.216 133.408 66.216C131.76 66.216 130.328 65.688 129.112 64.632C127.912 63.56 127.312 62.072 127.312 60.168C127.312 58.28 127.904 56.816 129.088 55.776C130.272 54.72 131.68 54.176 133.312 54.144C134.384 54.128 135.376 54.336 136.288 54.768C137.216 55.184 137.984 55.864 138.592 56.808C139.216 57.752 139.528 58.872 139.528 60.168ZM129.904 60.168C129.904 61.352 130.256 62.28 130.96 62.952C131.664 63.608 132.496 63.928 133.456 63.912C134.4 63.896 135.208 63.56 135.88 62.904C136.568 62.248 136.912 61.336 136.912 60.168C136.912 58.984 136.552 58.064 135.832 57.408C135.112 56.736 134.272 56.416 133.312 56.448C132.368 56.48 131.56 56.824 130.888 57.48C130.232 58.12 129.904 59.016 129.904 60.168Z" fill="#0E5A4C"/>
</svg>
