<svg xmlns="http://www.w3.org/2000/svg" width="6" height="11" fill="none">
  <path fill="#444B58" d="M3.78 7.59H2.184a4.132 4.132 0 0 1 .14-1.317 2.85 2.85 0 0 1 .476-.938 9 9 0 0 1 .616-.686c.205-.205.401-.43.588-.672.196-.252.327-.513.392-.784.075-.55-.037-.98-.336-1.288-.299-.317-.69-.476-1.176-.476-.364 0-.695.122-.994.364a1.456 1.456 0 0 0-.532.966H0C.037 1.854.313 1.168.826.701c.523-.466 1.204-.7 2.044-.7.775-.018 1.451.173 2.03.574.588.402.938.929 1.05 1.582.056.355.065.663.028.924a2.356 2.356 0 0 1-.322.952c-.168.29-.36.546-.574.77-.205.224-.41.462-.616.714A3.115 3.115 0 0 0 3.78 7.59ZM3.626 9.8a.9.9 0 0 1-.644.238c-.261 0-.485-.08-.672-.238a.788.788 0 0 1-.266-.616.79.79 0 0 1 .266-.616c.187-.158.41-.238.672-.238a.9.9 0 0 1 .644.238.788.788 0 0 1 .266.616.788.788 0 0 1-.266.616Z"/>
</svg>
