<svg width="181" height="389" viewBox="0 0 181 389" fill="none" xmlns="http://www.w3.org/2000/svg">
<mask id="mask0_31599_45" style="mask-type:alpha" maskUnits="userSpaceOnUse" x="0" y="0" width="181" height="389">
<path fill-rule="evenodd" clip-rule="evenodd" d="M51.3723 14.3881H129.628C135.991 14.3881 141.15 9.24093 141.15 2.29281C141.215 1.06471 142.199 0.0824444 143.427 0.0205523L162.274 0.0174561C172.35 0.0174561 180.518 8.16713 180.518 18.2203V370.78C180.518 380.833 172.35 388.982 162.274 388.982H18.726C8.65034 388.982 0.482422 380.833 0.482422 370.78V18.2203C0.482422 8.16713 8.65034 0.0174561 18.726 0.0174561H37.5697C38.8005 0.0824444 39.785 1.06471 39.847 2.28971C39.8501 9.24093 45.0088 14.3881 51.3723 14.3881Z" fill="white"/>
</mask>
<g mask="url(#mask0_31599_45)">
<path fill-rule="evenodd" clip-rule="evenodd" d="M0.482422 0.0174561H180.518V388.982H0.482422V0.0174561Z" fill="black"/>
</g>
</svg>
